<svg width="24" height="24" viewBox="0 0 24 24" fill="none" xmlns="http://www.w3.org/2000/svg">
<path d="M22.6153 15.9235C22.7428 15.9235 22.8461 15.8202 22.8461 15.6928V13.3851C22.8461 13.2576 22.7428 13.1543 22.6153 13.1543H14.3077C14.1802 13.1543 14.0769 13.2576 14.0769 13.3851V15.462H13.3846C13.2571 15.462 13.1538 15.5653 13.1538 15.6928V18.0005C13.1538 18.1279 13.2571 18.2312 13.3846 18.2312H14.0769V20.0774H13.3846C13.2571 20.0774 13.1538 20.1807 13.1538 20.3081V22.6158C13.1538 22.7433 13.2571 22.8466 13.3846 22.8466H21.6923C21.8197 22.8466 21.923 22.7433 21.923 22.6158V20.5389H22.6153C22.7428 20.5389 22.8461 20.4356 22.8461 20.3081V18.0005C22.8461 17.873 22.7428 17.7697 22.6153 17.7697H21.923V15.9235H22.6153ZM14.5384 13.6158H22.3846V15.462H21.6923H14.5384V13.6158ZM21.4615 22.3851H13.6153V20.5389H14.3077H21.4615V22.3851ZM22.3846 20.0774H21.6923H14.5384V18.2312H21.6923H22.3846V20.0774ZM21.4615 17.7697H14.3077H13.6153V15.9235H14.3077H21.4615V17.7697Z" fill="#95A7AE"/>
<path d="M10.6153 3.92383H2.30765C2.18022 3.92383 2.07689 4.02712 2.07689 4.1546V6.23152H1.38458C1.25715 6.23152 1.15381 6.33481 1.15381 6.46229V8.76998C1.15381 8.89746 1.25715 9.00075 1.38458 9.00075H2.07689V10.8469H1.38458C1.25715 10.8469 1.15381 10.9502 1.15381 11.0777V13.3854C1.15381 13.5128 1.25715 13.6161 1.38458 13.6161H2.07689V15.4623H1.38458C1.25715 15.4623 1.15381 15.5656 1.15381 15.6931V18.0008C1.15381 18.1282 1.25715 18.2315 1.38458 18.2315H2.07689V20.0777H1.38458C1.25715 20.0777 1.15381 20.181 1.15381 20.3084V22.6161C1.15381 22.7436 1.25715 22.8469 1.38458 22.8469H9.69227C9.8197 22.8469 9.92304 22.7436 9.92304 22.6161V20.5392H10.6153C10.7428 20.5392 10.8461 20.4359 10.8461 20.3084V18.0008C10.8461 17.8733 10.7428 17.77 10.6153 17.77H9.92304V15.9238H10.6153C10.7428 15.9238 10.8461 15.8205 10.8461 15.6931V13.3854C10.8461 13.2579 10.7428 13.1546 10.6153 13.1546H9.92304V11.3084H10.6153C10.7428 11.3084 10.8461 11.2052 10.8461 11.0777V8.76998C10.8461 8.64251 10.7428 8.53921 10.6153 8.53921H9.92304V6.69306H10.6153C10.7428 6.69306 10.8461 6.58977 10.8461 6.46229V4.1546C10.8461 4.02712 10.7428 3.92383 10.6153 3.92383ZM9.4615 22.3854H1.61535V20.5392H2.30765H9.4615V22.3854ZM10.3846 20.0777H9.69227H2.53842V18.2315H9.69227H10.3846V20.0777ZM9.4615 17.77H2.30765H1.61535V15.9238H2.30765H9.4615V17.77ZM10.3846 15.4623H9.69227H2.53842V13.6161H9.69227H10.3846V15.4623ZM9.4615 13.1546H2.30765H1.61535V11.3084H2.30765H9.4615V13.1546ZM10.3846 10.8469H9.69227H2.53842V9.00075H9.69227H10.3846V10.8469ZM9.4615 8.53921H2.30765H1.61535V6.69306H2.30765H9.4615V8.53921ZM10.3846 6.23152H9.69227H2.53842V4.38537H10.3846V6.23152Z" fill="#95A7AE"/>
<path d="M17.9998 6.69246C18.8905 6.69246 19.6152 7.41712 19.6152 8.30784C19.6152 8.43532 19.7185 8.53861 19.846 8.53861C19.9734 8.53861 20.0767 8.43532 20.0767 8.30784C20.0767 7.41712 20.8014 6.69246 21.6921 6.69246C21.8196 6.69246 21.9229 6.58917 21.9229 6.46169C21.9229 6.33421 21.8196 6.23092 21.6921 6.23092C20.8014 6.23092 20.0767 5.50626 20.0767 4.61553C20.0767 4.48806 19.9734 4.38477 19.846 4.38477C19.7185 4.38477 19.6152 4.48806 19.6152 4.61553C19.6152 5.50626 18.8905 6.23092 17.9998 6.23092C17.8724 6.23092 17.769 6.33421 17.769 6.46169C17.769 6.58917 17.8724 6.69246 17.9998 6.69246ZM19.846 5.56649C20.0441 5.94957 20.3581 6.26355 20.7412 6.46169C20.3581 6.65983 20.0441 6.97381 19.846 7.35689C19.6478 6.97381 19.3338 6.65983 18.9508 6.46169C19.3338 6.26355 19.6478 5.94957 19.846 5.56649Z" fill="#95A7AE"/>
<path d="M14.3074 3.00045C14.9437 3.00045 15.4613 3.51807 15.4613 4.1543C15.4613 4.28177 15.5646 4.38507 15.692 4.38507C15.8195 4.38507 15.9228 4.28177 15.9228 4.1543C15.9228 3.51807 16.4404 3.00045 17.0767 3.00045C17.2041 3.00045 17.3074 2.89716 17.3074 2.76968C17.3074 2.6422 17.2041 2.53891 17.0767 2.53891C16.4404 2.53891 15.9228 2.0213 15.9228 1.38507C15.9228 1.25759 15.8195 1.1543 15.692 1.1543C15.5646 1.1543 15.4613 1.25759 15.4613 1.38507C15.4613 2.0213 14.9437 2.53891 14.3074 2.53891C14.18 2.53891 14.0767 2.6422 14.0767 2.76968C14.0767 2.89716 14.18 3.00045 14.3074 3.00045ZM15.692 2.21644C15.8285 2.44277 16.019 2.63325 16.2453 2.76968C16.019 2.90611 15.8285 3.09659 15.692 3.32293C15.5556 3.09659 15.3651 2.90611 15.1388 2.76968C15.3651 2.63325 15.5556 2.44277 15.692 2.21644Z" fill="#95A7AE"/>
</svg>
