<svg width="24" height="24" viewBox="0 0 24 24" fill="none" xmlns="http://www.w3.org/2000/svg">
<path fill-rule="evenodd" clip-rule="evenodd" d="M17.4631 4.56043C18.2558 4.55611 19.0695 4.65764 19.842 4.82684C20.8378 5.045 21.9027 5.41076 22.7487 5.98893C23.3449 6.39573 23.9871 7.03942 23.8121 7.83143C23.6336 8.64071 22.7293 8.99208 22.0028 9.13032C20.9537 9.32976 19.7693 9.22752 18.7267 9.02088C18.3761 8.95176 18.0269 8.8668 17.6842 8.76456L16.8526 11.2176C16.6582 11.7915 16.2499 12.8016 15.8273 13.2257L8.35575 20.6972C7.88271 21.1703 7.05254 21.4028 6.52621 20.8772C4.50443 18.8547 2.48193 16.833 0.459433 14.8105C-0.0668923 14.2841 0.16639 13.454 0.639435 12.9809L8.11095 5.51012C8.53431 5.08676 9.54448 4.67924 10.1183 4.48483L14.8963 2.86482C15.2563 2.76258 15.7373 2.83386 16.0087 3.10602L17.4631 4.56043ZM14.9625 7.31302C14.7077 7.33246 14.4636 7.23958 14.2807 7.0567C13.9365 6.71254 13.9365 6.15453 14.2807 5.81037C14.8509 5.24012 15.833 5.68365 15.7833 6.48789C15.7725 6.65998 15.7142 6.82126 15.6134 6.95734C16.0677 7.36486 16.7338 7.67878 17.3047 7.89047L17.8591 6.25533C17.8951 6.12933 17.875 5.87805 17.7778 5.78157C17.0369 5.04068 16.296 4.29907 15.5551 3.55818C15.4579 3.4617 15.2073 3.44154 15.0842 3.47682L10.3235 5.09108C9.87209 5.24444 8.89 5.63541 8.56239 5.96301L1.0916 13.4345C0.881357 13.6448 0.655995 14.1027 0.911597 14.359C2.9341 16.3808 4.95588 18.4033 6.97838 20.4258C7.23398 20.6814 7.69263 20.456 7.90287 20.2458L15.3737 12.7743C15.7013 12.4467 16.0922 11.4646 16.2456 11.0139L17.0758 8.56583C16.3385 8.29511 15.5011 7.88327 14.9618 7.31374L14.9625 7.31302ZM18.204 5.30132L18.2314 5.32868C18.5028 5.60012 18.5741 6.08109 18.4704 6.44685L17.9131 8.09207C18.2263 8.18423 18.5446 8.26199 18.865 8.32535C19.8075 8.51183 20.9184 8.61479 21.8703 8.43335C22.2656 8.35847 23.0158 8.14607 23.1188 7.67879C23.2167 7.23454 22.6601 6.78886 22.3484 6.57573C21.2446 5.82117 19.5821 5.40716 18.204 5.3006V5.30132Z" fill="white"/>
</svg>
