<svg width="18" height="19" viewBox="0 0 18 19" fill="none" xmlns="http://www.w3.org/2000/svg">
<path d="M10.6023 3.02084L11.0377 2.97731L11.0377 2.97731L10.6023 3.02084ZM10.5398 2.60217L10.1241 2.73858L10.1241 2.73859L10.5398 2.60217ZM10.7215 3.76907L10.3217 3.94684L10.3217 3.94684L10.7215 3.76907ZM11.8349 4.23027L11.6779 3.8219L11.6779 3.8219L11.8349 4.23027ZM12.4485 3.78522L12.1714 3.44661L12.1714 3.44661L12.4485 3.78522ZM12.7892 3.53308L12.5918 3.14264L12.5918 3.14264L12.7892 3.53308ZM13.6545 3.57624L13.8898 3.20738L13.8898 3.20738L13.6545 3.57624ZM13.9684 3.86092L13.659 4.17028L13.659 4.17028L13.9684 3.86092ZM14.6383 4.53081L14.9477 4.22145L14.9477 4.22145L14.6383 4.53081ZM14.9233 4.8451L14.5544 5.08026L14.9233 4.8451ZM14.9665 5.70998L15.3569 5.90727L15.3569 5.90726L14.9665 5.70998ZM14.7141 6.05115L14.3754 5.77411L14.3754 5.77411L14.7141 6.05115ZM14.2684 6.66566L14.6769 6.82241L14.6769 6.82241L14.2684 6.66566ZM14.7294 7.77849L14.5514 8.17815L14.5514 8.17816L14.7294 7.77849ZM15.4788 7.89788L15.5507 7.46633L15.5366 7.46398L15.5223 7.46255L15.4788 7.89788ZM15.4788 7.89788L15.4069 8.32943L15.421 8.33178L15.4353 8.33321L15.4788 7.89788ZM15.8981 7.96058L15.7616 8.37622L15.7616 8.37622L15.8981 7.96058ZM16.4793 8.60281L16.9065 8.50829L16.9065 8.50829L16.4793 8.60281ZM16.4794 10.3969L16.0522 10.3025L16.0522 10.3025L16.4794 10.3969ZM15.8978 11.0395L16.0342 11.4552L16.0342 11.4552L15.8978 11.0395ZM15.4792 11.1021V11.5396H15.501L15.5227 11.5374L15.4792 11.1021ZM15.4792 11.1021V10.6646H15.4573L15.4356 10.6668L15.4792 11.1021ZM14.731 11.2212L14.5532 10.8214L14.5532 10.8214L14.731 11.2212ZM14.2698 12.3347L13.8614 12.4916L13.8614 12.4916L14.2698 12.3347ZM14.7146 12.948L15.0646 12.6855L15.0591 12.6781L15.0532 12.6709L14.7146 12.948ZM14.7146 12.948L14.3646 13.2105L14.3702 13.2179L14.376 13.225L14.7146 12.948ZM14.9665 13.2883L14.5761 13.4858L14.5761 13.4858L14.9665 13.2883ZM14.9233 14.1539L15.2921 14.3893L15.2921 14.3893L14.9233 14.1539ZM14.6389 14.4675L14.3295 14.1582L14.3295 14.1582L14.6389 14.4675ZM13.9686 15.1377L14.278 15.4471L14.278 15.4471L13.9686 15.1377ZM13.9686 15.1378L14.278 15.4471L14.278 15.4471L13.9686 15.1378ZM13.6547 15.4225L13.4195 15.0536L13.4195 15.0536L13.6547 15.4225ZM12.7895 15.4656L12.5921 15.8561L12.5921 15.8561L12.7895 15.4656ZM12.4488 15.2136L12.1717 15.5522L12.1717 15.5522L12.4488 15.2136ZM11.8347 14.7682L11.9915 14.3598L11.9915 14.3598L11.8347 14.7682ZM10.7217 15.2293L11.1214 15.4072L11.1214 15.4072L10.7217 15.2293ZM10.6024 15.9786L11.0339 16.0505L11.0363 16.0364L11.0377 16.0221L10.6024 15.9786ZM10.6024 15.9786L10.1708 15.9067L10.1649 15.9424V15.9786H10.6024ZM10.6024 15.9786L11.0377 16.0221L11.0399 16.0004V15.9786H10.6024ZM10.5396 16.3982L10.124 16.2616L10.124 16.2616L10.5396 16.3982ZM9.89749 16.9793L9.80294 16.5522L9.80293 16.5522L9.89749 16.9793ZM8.10297 16.9793L8.0084 17.4065L8.0084 17.4065L8.10297 16.9793ZM7.46086 16.3982L7.87648 16.2616L7.87648 16.2616L7.46086 16.3982ZM7.3981 15.9785L6.96277 16.0221L6.96277 16.0221L7.3981 15.9785ZM7.27877 15.2292L7.67846 15.0513L7.67846 15.0513L7.27877 15.2292ZM6.16573 14.7681L6.0089 14.3597L6.0089 14.3597L6.16573 14.7681ZM5.55176 15.2134L5.81426 15.5634L5.82165 15.5579L5.8288 15.552L5.55176 15.2134ZM5.55173 15.2134L5.28923 14.8634L5.28184 14.869L5.27469 14.8748L5.55173 15.2134ZM5.21107 15.4655L5.40845 15.8559L5.40845 15.8559L5.21107 15.4655ZM4.34579 15.4223L4.11053 15.7912L4.11053 15.7912L4.34579 15.4223ZM4.03189 15.1376L3.72253 15.447L3.72253 15.447L4.03189 15.1376ZM3.3616 14.4673L3.67096 14.158L3.67096 14.158L3.3616 14.4673ZM3.07725 14.1538L2.70845 14.3892L2.70845 14.3892L3.07725 14.1538ZM3.03407 13.2881L3.42446 13.4856L3.42446 13.4856L3.03407 13.2881ZM3.28582 12.9479L2.94722 12.6709L2.94722 12.6709L3.28582 12.9479ZM3.73059 12.3347L4.13895 12.4917L4.13895 12.4917L3.73059 12.3347ZM3.26936 11.2212L3.4471 10.8215L3.4471 10.8215L3.26936 11.2212ZM2.52105 11.1021L2.56459 10.6668L2.56459 10.6668L2.52105 11.1021ZM2.10208 11.0395L1.96563 11.4552L1.96563 11.4552L2.10208 11.0395ZM1.52062 10.397L1.09343 10.4914L1.09343 10.4914L1.52062 10.397ZM1.52069 8.60271L1.94784 8.69729L1.94784 8.69729L1.52069 8.60271ZM2.10178 7.96061L2.23839 8.37624L2.23839 8.37624L2.10178 7.96061ZM2.52137 7.89786L2.5649 8.33319L2.5649 8.33319L2.52137 7.89786ZM3.27109 7.77842L3.09307 7.37877L3.09307 7.37877L3.27109 7.77842ZM3.73199 6.66571L4.14046 6.50899L4.14046 6.50899L3.73199 6.66571ZM3.28636 6.05116L2.93636 6.31366L2.9419 6.32105L2.94776 6.32821L3.28636 6.05116ZM3.28636 6.05116L3.63636 5.78866L3.63081 5.78127L3.62496 5.77412L3.28636 6.05116ZM3.0341 5.71019L3.42458 5.51288L3.42458 5.51288L3.0341 5.71019ZM3.07724 4.84519L2.70834 4.61001L2.70833 4.61001L3.07724 4.84519ZM3.36218 4.53101L3.67153 4.84037L3.67153 4.84037L3.36218 4.53101ZM4.03214 3.86105L4.34149 4.17041L4.34149 4.17041L4.03214 3.86105ZM4.34598 3.5764L4.11071 3.20754L4.11071 3.20754L4.34598 3.5764ZM5.21131 3.53324L5.01391 3.92367L5.01391 3.92367L5.21131 3.53324ZM5.55202 3.78533L5.82906 3.44673L5.82906 3.44673L5.55202 3.78533ZM6.16563 4.2304L6.00868 4.63878L6.00868 4.63878L6.16563 4.2304ZM7.27901 3.76922L7.67875 3.94702L7.67875 3.94702L7.27901 3.76922ZM7.39816 3.02088L6.96838 2.93901L6.96476 2.95806L6.96283 2.97734L7.39816 3.02088ZM7.39816 3.02087L7.82793 3.10273L7.83156 3.08369L7.83349 3.0644L7.39816 3.02087ZM7.46074 2.60214L7.87643 2.73857L7.87643 2.73857L7.46074 2.60214ZM8.10333 2.02061L8.00894 1.59341L8.00894 1.59341L8.10333 2.02061ZM9.89713 2.0206L9.99151 1.5934L9.89713 2.0206ZM11.0377 2.97731C11.018 2.7811 11.0038 2.61315 10.9554 2.46575L10.1241 2.73859C10.1353 2.77267 10.1429 2.82334 10.167 3.06437L11.0377 2.97731ZM11.1212 3.5913C11.1178 3.58356 11.1049 3.54834 11.0888 3.43832C11.0732 3.33122 11.0587 3.18808 11.0377 2.97731L10.167 3.06437C10.1872 3.26674 10.2038 3.43346 10.2231 3.56506C10.2419 3.69374 10.268 3.82607 10.3217 3.94684L11.1212 3.5913ZM11.6779 3.8219C11.4606 3.90545 11.2158 3.80408 11.1212 3.5913L10.3217 3.94684C10.6056 4.58519 11.3397 4.8893 11.9919 4.63865L11.6779 3.8219ZM12.1714 3.44661C12.0074 3.58082 11.8959 3.67189 11.8091 3.73657C11.7198 3.80303 11.6858 3.81887 11.6779 3.8219L11.9919 4.63865C12.1153 4.59122 12.2273 4.51606 12.3316 4.43837C12.4384 4.35891 12.568 4.25268 12.7255 4.12383L12.1714 3.44661ZM12.5918 3.14264C12.4533 3.2127 12.3243 3.32156 12.1714 3.44661L12.7255 4.12383C12.9133 3.9702 12.9546 3.93972 12.9866 3.92352L12.5918 3.14264ZM13.8898 3.20738C13.4989 2.95809 13.0056 2.93348 12.5918 3.14264L12.9866 3.92352C13.1245 3.8538 13.289 3.862 13.4193 3.9451L13.8898 3.20738ZM14.2778 3.55156C14.1382 3.41199 14.0207 3.29088 13.8898 3.20738L13.4193 3.9451C13.4495 3.96441 13.4876 3.99882 13.659 4.17028L14.2778 3.55156ZM14.9477 4.22145L14.2778 3.55156L13.659 4.17028L14.3289 4.84017L14.9477 4.22145ZM15.2922 4.60994C15.2087 4.47883 15.0874 4.3612 14.9477 4.22145L14.3289 4.84017C14.5006 5.01185 14.5351 5.04994 14.5544 5.08026L15.2922 4.60994ZM15.3569 5.90726C15.5659 5.49372 15.5413 5.00065 15.2922 4.60994L14.5544 5.08026C14.6374 5.21049 14.6456 5.37485 14.576 5.5127L15.3569 5.90726ZM15.0527 6.32819C15.1778 6.17518 15.2868 6.04604 15.3569 5.90727L14.576 5.5127C14.5597 5.54479 14.5292 5.58614 14.3754 5.77411L15.0527 6.32819ZM14.6769 6.82241C14.6799 6.81449 14.6958 6.78046 14.7623 6.69109C14.8271 6.60409 14.9183 6.49246 15.0527 6.32819L14.3754 5.77411C14.2464 5.93183 14.14 6.06168 14.0604 6.16856C13.9827 6.27306 13.9074 6.38529 13.86 6.50891L14.6769 6.82241ZM14.9073 7.37883C14.6948 7.28417 14.5935 7.03966 14.6769 6.82241L13.86 6.5089C13.6098 7.16066 13.9137 7.89416 14.5514 8.17815L14.9073 7.37883ZM15.5223 7.46255C15.3112 7.44144 15.1678 7.42699 15.0606 7.41128C14.9504 7.39514 14.9151 7.38228 14.9073 7.37883L14.5514 8.17816C14.6723 8.23201 14.8049 8.25816 14.9338 8.27704C15.0656 8.29635 15.2326 8.31294 15.4353 8.33321L15.5223 7.46255ZM15.5507 7.46633L15.5507 7.46633L15.4069 8.32943L15.4069 8.32943L15.5507 7.46633ZM16.0347 7.54494C15.8871 7.49644 15.7188 7.4822 15.5223 7.46255L15.4353 8.33321C15.6767 8.35735 15.7274 8.36501 15.7616 8.37622L16.0347 7.54494ZM16.9065 8.50829C16.8064 8.05577 16.475 7.68961 16.0347 7.54494L15.7616 8.37622C15.9083 8.42445 16.0188 8.5465 16.0522 8.69734L16.9065 8.50829ZM16.9375 9.02631C16.9375 8.8288 16.9401 8.66 16.9065 8.50829L16.0522 8.69734C16.0599 8.73242 16.0625 8.78368 16.0625 9.02631H16.9375ZM16.9375 9.97408V9.02631H16.0625V9.97408H16.9375ZM16.9066 10.4912C16.9401 10.3398 16.9375 10.1713 16.9375 9.97408H16.0625C16.0625 10.2163 16.0599 10.2675 16.0522 10.3025L16.9066 10.4912ZM16.0342 11.4552C16.4749 11.3106 16.8066 10.9441 16.9066 10.4912L16.0522 10.3025C16.0189 10.4535 15.9083 10.5756 15.7614 10.6238L16.0342 11.4552ZM15.5227 11.5374C15.7189 11.5178 15.8868 11.5036 16.0342 11.4552L15.7614 10.6238C15.7273 10.635 15.6767 10.6427 15.4357 10.6668L15.5227 11.5374ZM15.4792 11.5396H15.4792V10.6646H15.4792V11.5396ZM15.4792 11.5396H15.4792V10.6646H15.4792V11.5396ZM14.9087 11.621C14.9165 11.6175 14.9517 11.6047 15.0617 11.5886C15.1688 11.5729 15.3119 11.5585 15.5227 11.5374L15.4356 10.6668C15.2333 10.687 15.0666 10.7036 14.935 10.7228C14.8063 10.7417 14.674 10.7677 14.5532 10.8214L14.9087 11.621ZM14.6781 12.1777C14.5946 11.9603 14.696 11.7156 14.9087 11.621L14.5532 10.8214C13.9148 11.1053 13.6107 11.8395 13.8614 12.4916L14.6781 12.1777ZM15.0532 12.6709C14.9191 12.507 14.8281 12.3956 14.7634 12.3088C14.697 12.2196 14.6812 12.1856 14.6781 12.1777L13.8614 12.4916C13.9088 12.615 13.984 12.727 14.0616 12.8313C14.1411 12.938 14.2472 13.0676 14.376 13.225L15.0532 12.6709ZM15.0646 12.6855L15.0646 12.6855L14.3646 13.2105L14.3646 13.2105L15.0646 12.6855ZM15.3569 13.0909C15.2869 12.9524 15.1781 12.8236 15.0532 12.671L14.376 13.225C14.5295 13.4126 14.5599 13.4538 14.5761 13.4858L15.3569 13.0909ZM15.2921 14.3893C15.5416 13.9983 15.5662 13.5047 15.3569 13.0909L14.5761 13.4858C14.6459 13.6238 14.6377 13.7883 14.5545 13.9186L15.2921 14.3893ZM14.9482 14.7769C15.0877 14.6374 15.2087 14.5201 15.2921 14.3893L14.5545 13.9186C14.5352 13.9489 14.5008 13.9869 14.3295 14.1582L14.9482 14.7769ZM14.278 15.4471L14.9482 14.7769L14.3295 14.1582L13.6593 14.8284L14.278 15.4471ZM14.278 15.4471L14.278 15.4471L13.6593 14.8284L13.6593 14.8284L14.278 15.4471ZM13.89 15.7913C14.0209 15.7078 14.1384 15.5867 14.278 15.4471L13.6593 14.8284C13.4878 14.9999 13.4498 15.0343 13.4195 15.0536L13.89 15.7913ZM12.5921 15.8561C13.0058 16.0652 13.4991 16.0406 13.89 15.7913L13.4195 15.0536C13.2892 15.1367 13.1247 15.1449 12.9868 15.0752L12.5921 15.8561ZM12.1717 15.5522C12.3245 15.6772 12.4535 15.786 12.5921 15.8561L12.9869 15.0752C12.9548 15.059 12.9135 15.0285 12.7258 14.8749L12.1717 15.5522ZM11.6779 15.1767C11.6858 15.1797 11.7198 15.1956 11.8091 15.262C11.8961 15.3267 12.0076 15.4179 12.1717 15.5522L12.7258 14.8749C12.5682 14.746 12.4385 14.6397 12.3317 14.5602C12.2272 14.4824 12.1151 14.4072 11.9915 14.3598L11.6779 15.1767ZM11.1214 15.4072C11.2161 15.1945 11.4606 15.0932 11.6779 15.1767L11.9915 14.3598C11.3397 14.1095 10.606 14.4134 10.322 15.0513L11.1214 15.4072ZM11.0377 16.0221C11.0588 15.811 11.0733 15.6676 11.089 15.5604C11.1051 15.4502 11.118 15.4149 11.1214 15.4072L10.322 15.0513C10.2682 15.1722 10.2421 15.3048 10.2232 15.4336C10.2039 15.5654 10.1873 15.7324 10.1671 15.935L11.0377 16.0221ZM11.0339 16.0505L11.0339 16.0505L10.1708 15.9066L10.1708 15.9067L11.0339 16.0505ZM11.0399 15.9786V15.9786H10.1649V15.9786H11.0399ZM10.9553 16.5348C11.0038 16.3871 11.018 16.2188 11.0377 16.0221L10.1671 15.9351C10.1429 16.1767 10.1352 16.2274 10.124 16.2616L10.9553 16.5348ZM9.99204 17.4065C10.4445 17.3063 10.8106 16.975 10.9553 16.5348L10.124 16.2616C10.0758 16.4083 9.95375 16.5188 9.80294 16.5522L9.99204 17.4065ZM9.47386 17.4375C9.67143 17.4375 9.84029 17.4401 9.99205 17.4065L9.80293 16.5522C9.76784 16.5599 9.71657 16.5625 9.47386 16.5625V17.4375ZM8.52666 17.4375H9.47386V16.5625H8.52666V17.4375ZM8.0084 17.4065C8.16018 17.4401 8.32907 17.4375 8.52666 17.4375V16.5625C8.28392 16.5625 8.23264 16.5599 8.19754 16.5522L8.0084 17.4065ZM7.04523 16.5348C7.18991 16.975 7.55599 17.3063 8.0084 17.4065L8.19754 16.5522C8.04674 16.5188 7.92471 16.4083 7.87648 16.2616L7.04523 16.5348ZM6.96277 16.0221C6.98244 16.2188 6.99669 16.3871 7.04523 16.5348L7.87648 16.2616C7.86526 16.2275 7.85759 16.1766 7.83343 15.935L6.96277 16.0221ZM6.87907 15.4071C6.88252 15.4148 6.89536 15.4501 6.9115 15.5603C6.92721 15.6676 6.94166 15.8109 6.96277 16.0221L7.83343 15.935C7.81316 15.7323 7.79657 15.5653 7.77727 15.4335C7.7584 15.3047 7.73227 15.1722 7.67846 15.0513L6.87907 15.4071ZM6.32255 15.1766C6.53985 15.0931 6.78442 15.1944 6.87907 15.4071L7.67846 15.0513C7.39451 14.4133 6.66078 14.1094 6.0089 14.3597L6.32255 15.1766ZM5.8288 15.552C5.99291 15.4177 6.10444 15.3266 6.19135 15.2619C6.28063 15.1954 6.31463 15.1796 6.32255 15.1766L6.0089 14.3597C5.88538 14.4071 5.77323 14.4823 5.66881 14.5601C5.56202 14.6396 5.43228 14.7459 5.27472 14.8748L5.8288 15.552ZM5.81423 15.5634L5.81426 15.5634L5.28926 14.8634L5.28923 14.8634L5.81423 15.5634ZM5.40845 15.8559C5.54705 15.7858 5.676 15.677 5.82878 15.552L5.27469 14.8748C5.08701 15.0284 5.04573 15.0588 5.01369 15.075L5.40845 15.8559ZM4.11053 15.7912C4.50138 16.0405 4.99474 16.0651 5.40845 15.8559L5.01369 15.075C4.87578 15.1447 4.71133 15.1365 4.58104 15.0534L4.11053 15.7912ZM3.72253 15.447C3.86212 15.5866 3.9796 15.7077 4.11053 15.7912L4.58104 15.0534C4.55077 15.0341 4.51272 14.9997 4.34125 14.8283L3.72253 15.447ZM3.05224 14.7767L3.72253 15.447L4.34125 14.8283L3.67096 14.158L3.05224 14.7767ZM2.70845 14.3892C2.79188 14.5199 2.91284 14.6373 3.05224 14.7767L3.67096 14.158C3.49971 13.9867 3.46534 13.9487 3.44604 13.9185L2.70845 14.3892ZM2.64368 13.0906C2.4343 13.5045 2.45892 13.9982 2.70845 14.3892L3.44604 13.9185C3.36287 13.7882 3.35466 13.6236 3.42446 13.4856L2.64368 13.0906ZM2.94722 12.6709C2.82237 12.8235 2.71369 12.9523 2.64368 13.0906L3.42446 13.4856C3.44065 13.4536 3.47107 13.4124 3.62443 13.225L2.94722 12.6709ZM3.32223 12.1777C3.31919 12.1857 3.30335 12.2196 3.23695 12.3088C3.17232 12.3956 3.08133 12.507 2.94722 12.6709L3.62443 13.225C3.75319 13.0676 3.85935 12.938 3.93876 12.8314C4.01642 12.7271 4.09153 12.6151 4.13895 12.4917L3.32223 12.1777ZM3.09161 11.621C3.30442 11.7156 3.4058 11.9604 3.32223 12.1777L4.13895 12.4917C4.38967 11.8396 4.08553 11.1053 3.4471 10.8215L3.09161 11.621ZM2.47752 11.5374C2.68832 11.5585 2.83149 11.5729 2.93861 11.5886C3.04866 11.6047 3.08388 11.6175 3.09161 11.621L3.4471 10.8215C3.32634 10.7678 3.194 10.7417 3.06533 10.7228C2.93372 10.7036 2.76699 10.687 2.56459 10.6668L2.47752 11.5374ZM1.96563 11.4552C2.11309 11.5036 2.28116 11.5178 2.47752 11.5374L2.56459 10.6668C2.32336 10.6427 2.27264 10.635 2.23854 10.6238L1.96563 11.4552ZM1.09343 10.4914C1.1935 10.9442 1.52506 11.3105 1.96563 11.4552L2.23854 10.6238C2.09169 10.5756 1.98117 10.4535 1.94781 10.3026L1.09343 10.4914ZM1.0625 9.97396C1.0625 10.1712 1.05994 10.3398 1.09343 10.4914L1.94781 10.3026C1.94006 10.2675 1.9375 10.2163 1.9375 9.97396H1.0625ZM1.0625 9.02643V9.97396H1.9375V9.02643H1.0625ZM1.09353 8.50814C1.05993 8.65993 1.0625 8.82882 1.0625 9.02643H1.9375C1.9375 8.78367 1.94007 8.73239 1.94784 8.69729L1.09353 8.50814ZM1.96518 7.54499C1.52498 7.68967 1.1937 8.05574 1.09353 8.50814L1.94784 8.69729C1.98123 8.54649 2.09166 8.42447 2.23839 8.37624L1.96518 7.54499ZM2.47784 7.46253C2.28119 7.4822 2.11286 7.49645 1.96517 7.54499L2.23839 8.37624C2.27254 8.36501 2.32333 8.35735 2.5649 8.33319L2.47784 7.46253ZM3.09307 7.37877C3.08531 7.38223 3.05004 7.39509 2.93979 7.41124C2.83247 7.42696 2.68904 7.44141 2.47783 7.46253L2.5649 8.33319C2.76768 8.31291 2.93475 8.29632 3.06661 8.277C3.19554 8.25811 3.32813 8.23195 3.44911 8.17806L3.09307 7.37877ZM3.32352 6.82242C3.40686 7.03964 3.30561 7.2841 3.09307 7.37877L3.44911 8.17806C4.08671 7.89405 4.39048 7.16067 4.14046 6.50899L3.32352 6.82242ZM2.94776 6.32821C3.08215 6.49247 3.17334 6.6041 3.2381 6.69109C3.30463 6.78045 3.32048 6.81449 3.32352 6.82242L4.14046 6.50899C4.09302 6.38534 4.01777 6.27309 3.93997 6.16858C3.86039 6.06169 3.754 5.93183 3.62497 5.77412L2.94776 6.32821ZM2.93636 6.31366L2.93636 6.31366L3.63636 5.78866L3.63636 5.78866L2.93636 6.31366ZM2.64362 5.9075C2.71372 6.04622 2.82264 6.17529 2.94775 6.3282L3.62496 5.77412C3.47127 5.58627 3.44079 5.54496 3.42458 5.51288L2.64362 5.9075ZM2.70833 4.61001C2.45923 5.00075 2.43463 5.4939 2.64362 5.9075L3.42458 5.51288C3.35492 5.37501 3.36312 5.21063 3.44615 5.08038L2.70833 4.61001ZM3.05282 4.22166C2.91311 4.36136 2.79189 4.47894 2.70834 4.61001L3.44615 5.08038C3.46547 5.05007 3.49991 5.012 3.67153 4.84037L3.05282 4.22166ZM3.72278 3.5517L3.05282 4.22166L3.67153 4.84037L4.34149 4.17041L3.72278 3.5517ZM4.11071 3.20754C3.9798 3.29104 3.86234 3.41213 3.72278 3.5517L4.34149 4.17041C4.51294 3.99897 4.55098 3.96456 4.58125 3.94525L4.11071 3.20754ZM5.40871 3.1428C4.99498 2.93362 4.50158 2.95823 4.11071 3.20754L4.58125 3.94525C4.71154 3.86215 4.876 3.85395 5.01391 3.92367L5.40871 3.1428ZM5.82906 3.44673C5.67625 3.3217 5.54728 3.21286 5.40871 3.1428L5.01391 3.92367C5.04596 3.93987 5.08725 3.97034 5.27498 4.12394L5.82906 3.44673ZM6.32257 3.82202C6.31467 3.81898 6.28069 3.80314 6.19144 3.73669C6.10457 3.672 5.9931 3.58094 5.82906 3.44673L5.27498 4.12394C5.43247 4.2528 5.56214 4.35903 5.66887 4.4385C5.77321 4.51619 5.88527 4.59135 6.00868 4.63878L6.32257 3.82202ZM6.87926 3.59143C6.78463 3.80419 6.53993 3.90555 6.32257 3.82202L6.00868 4.63878C6.66076 4.88938 7.39487 4.5853 7.67875 3.94702L6.87926 3.59143ZM6.96283 2.97734C6.94175 3.18815 6.92732 3.33131 6.91164 3.43842C6.89553 3.54847 6.88271 3.58368 6.87926 3.59143L7.67875 3.94702C7.73248 3.82622 7.75857 3.69387 7.77741 3.56518C7.79668 3.43355 7.81325 3.26681 7.83349 3.06441L6.96283 2.97734ZM6.96839 2.93901L6.96838 2.93901L7.82793 3.10274L7.82793 3.10273L6.96839 2.93901ZM7.04506 2.46571C6.99668 2.61313 6.98245 2.7811 6.96283 2.97734L7.83349 3.0644C7.85759 2.82333 7.86524 2.77266 7.87643 2.73857L7.04506 2.46571ZM8.00894 1.59341C7.5561 1.69347 7.18968 2.02507 7.04506 2.46571L7.87643 2.73857C7.92463 2.59169 8.04677 2.48116 8.19772 2.4478L8.00894 1.59341ZM8.52621 1.5625C8.329 1.5625 8.16044 1.55994 8.00894 1.59341L8.19772 2.4478C8.23275 2.44006 8.28394 2.4375 8.52621 2.4375V1.5625ZM9.47432 1.5625H8.52621V2.4375H9.47432V1.5625ZM9.99151 1.5934C9.84003 1.55994 9.6715 1.5625 9.47432 1.5625V2.4375C9.71655 2.4375 9.76773 2.44006 9.80276 2.4478L9.99151 1.5934ZM10.9554 2.46576C10.8108 2.02508 10.4444 1.69345 9.99151 1.5934L9.80276 2.4478C9.95372 2.48115 10.0759 2.59169 10.1241 2.73858L10.9554 2.46576ZM11.5625 9.49976C11.5625 10.915 10.4152 12.0623 9 12.0623V12.9373C10.8985 12.9373 12.4375 11.3982 12.4375 9.49976H11.5625ZM9 6.93726C10.4152 6.93726 11.5625 8.08453 11.5625 9.49976H12.4375C12.4375 7.60128 10.8985 6.06226 9 6.06226V6.93726ZM6.4375 9.49976C6.4375 8.08453 7.58477 6.93726 9 6.93726V6.06226C7.10152 6.06226 5.5625 7.60128 5.5625 9.49976H6.4375ZM9 12.0623C7.58477 12.0623 6.4375 10.915 6.4375 9.49976H5.5625C5.5625 11.3982 7.10152 12.9373 9 12.9373V12.0623Z" fill="#95A7AE"/>
</svg>
