<svg width="18" height="19" viewBox="0 0 18 19" fill="none" xmlns="http://www.w3.org/2000/svg">
<path fill-rule="evenodd" clip-rule="evenodd" d="M11.9148 4.78986L11.9015 4.78277C11.1576 4.34586 10.5844 4.04599 9.84968 4.14344C9.50106 4.18967 9.14532 4.3206 8.74439 4.50885C8.34306 4.69728 7.8621 4.96015 7.26253 5.29164L7.26151 5.2922L1.93777 8.20343L1.91024 8.21849L1.88481 8.23687C0.996943 8.87846 0.540483 9.6888 0.637946 10.56C0.732022 11.4009 1.32687 12.1321 2.15777 12.6797L2.17324 12.6899L2.18943 12.699L6.43944 15.0687C6.64037 15.702 7.23298 16.1609 7.93276 16.1609C8.75072 16.1609 9.42225 15.5339 9.49301 14.7344L14.4473 12.101L14.4403 12.0879C14.675 12.2281 14.9494 12.3087 15.2427 12.3087C16.1078 12.3087 16.8091 11.6074 16.8091 10.7423C16.8091 9.87717 16.1078 9.17587 15.2427 9.17587C14.3776 9.17587 13.6763 9.87717 13.6763 10.7423C13.6763 10.9463 13.7153 11.1412 13.7862 11.3199L9.24253 13.735C8.96254 13.3092 8.48048 13.0281 7.93276 13.0281C7.29424 13.0281 6.74494 13.4101 6.50102 13.9581L2.69305 11.8348C2.00271 11.3757 1.67946 10.8753 1.63175 10.4488C1.59302 10.1027 1.72437 9.68469 2.21703 9.24923L5.41027 11.1694L5.41135 11.1701C6.36368 11.7494 7.07971 12.1138 7.86941 12.0786C8.63553 12.0446 9.38757 11.6346 10.4206 11.0138L14.4375 8.82595L14.4375 8.82599L14.443 8.82293C14.5884 8.74136 14.7232 8.67241 14.8599 8.60247L14.8599 8.60245L14.8599 8.60243C14.9441 8.55938 15.0289 8.51596 15.1175 8.46899C15.3179 8.36264 15.5587 8.22756 15.7254 8.05804C15.8137 7.96817 15.9134 7.83732 15.9564 7.66191C16.003 7.47144 15.9689 7.28629 15.8837 7.12786C15.7388 6.8587 15.443 6.66075 15.1281 6.49439C14.5078 6.1667 13.6989 5.73759 13.0448 5.3903L12.2232 4.95381L11.9802 4.82465L11.9148 4.78986ZM7.74334 6.16847L3.18214 8.66271L5.92783 10.3138L5.93006 10.3151C6.90329 10.9073 7.37633 11.0996 7.82495 11.0796C8.2952 11.0587 8.82893 10.8038 9.91454 10.1513L9.92364 10.1458L9.93297 10.1407L13.9565 7.94923C14.1135 7.86124 14.284 7.77381 14.4337 7.69704L14.4337 7.69702C14.5129 7.65641 14.5863 7.61877 14.6488 7.58562C14.7248 7.54527 14.7873 7.51026 14.8382 7.4799C14.7901 7.4497 14.7316 7.41591 14.661 7.37858C14.0397 7.05038 13.23 6.62086 12.5759 6.27351L11.7539 5.83684L11.5108 5.70761L11.4453 5.67279L11.4283 5.66377L11.424 5.66147L11.4229 5.66089L11.4226 5.66075L11.4226 5.66071L11.6573 5.21924L11.4225 5.6607L11.4131 5.6557L11.4039 5.6503C10.6323 5.19672 10.337 5.08757 9.98115 5.13476C9.78298 5.16104 9.53609 5.24187 9.1694 5.41403C8.80335 5.58591 8.35204 5.83193 7.74537 6.16735L7.74334 6.16847L7.74334 6.16847ZM15.0174 7.35134C15.0174 7.35133 15.017 7.35185 15.0161 7.35289L15.0174 7.35134ZM8.49917 14.5945C8.49917 14.9073 8.24558 15.1609 7.93276 15.1609C7.61995 15.1609 7.36636 14.9073 7.36636 14.5945C7.36636 14.2817 7.61995 14.0281 7.93276 14.0281C8.24558 14.0281 8.49917 14.2817 8.49917 14.5945ZM15.2427 11.3087C15.5555 11.3087 15.8091 11.0551 15.8091 10.7423C15.8091 10.4295 15.5555 10.1759 15.2427 10.1759C14.9298 10.1759 14.6763 10.4295 14.6763 10.7423C14.6763 11.0551 14.9298 11.3087 15.2427 11.3087Z" fill="#95A7AE"/>
</svg>
